<svg viewBox="0 0 360 118" fill="none" xmlns="http://www.w3.org/2000/svg" role="img" aria-label="LVLX">
  <defs>
    <filter id="glow" x="-30%" y="-60%" width="160%" height="220%"><feGaussianBlur stdDeviation="3.4" result="blur"/><feMerge><feMergeNode in="blur"/><feMergeNode in="SourceGraphic"/></feMerge></filter>
    <linearGradient id="cyan" x1="0" y1="0" x2="1" y2="1"><stop stop-color="#2af1ff"/><stop offset=".52" stop-color="#18c8ff"/><stop offset="1" stop-color="#0476ff"/></linearGradient>
    <linearGradient id="white" x1="0" y1="0" x2="0" y2="1"><stop stop-color="#ffffff"/><stop offset="1" stop-color="#dbefff"/></linearGradient>
  </defs>
  <g filter="url(#glow)" opacity=".96">
    <path d="M105 15 H151 L180 49 L209 15 H255 L213 59 L255 103 H210 L180 70 L150 103 H105 L147 59 Z" stroke="url(#cyan)" stroke-width="8" stroke-linejoin="miter"/>
    <path d="M112 23 H142 L180 63 L218 23 H248 L204 59 L248 95 H218 L180 75 L142 95 H112 L156 59 Z" stroke="#19c8ff" stroke-opacity=".28" stroke-width="3"/>
  </g>
  <path d="M11 31 H45 V75 H105 V103 H11 Z" fill="url(#white)"/>
  <path d="M127 31 H165 L180 55 L195 31 H233 L180 103 Z" fill="url(#white)"/>
  <path d="M255 31 H289 V75 H349 V103 H255 Z" fill="url(#white)"/>
</svg>
